<svg width="34" height="40" viewBox="0 0 34 40" fill="none" xmlns="http://www.w3.org/2000/svg">
<g clip-path="url(#clip0_533_5076)">
<path d="M16.875 40C14.1047 40 12.8578 38.7516 9.52812 35.4125L8.93281 34.8172C5.6625 31.5469 5.625 21.6688 5.625 21.25C5.625 21.1781 5.6375 21.1062 5.6625 21.0391C5.72813 20.8562 7.32031 16.5344 11.5406 13.8484C12.4734 13.2547 13.4109 12.8219 14.4328 12.4469C12.0359 11.5938 10.0016 10.3844 10.0016 7.50156C10 2.33125 14.5422 0.15 14.7359 0.059375C14.8187 0.0203125 14.9094 0 15 0H15.625C15.9766 0.025 23.1812 0.621875 26.7453 5.24375C30.2172 9.74531 30.0078 12.4469 29.9969 12.5594C29.9641 12.9031 29.6641 13.1516 29.3156 13.1234C28.9734 13.0906 28.7234 12.7906 28.7516 12.4484C28.7547 12.3938 28.8594 10.0328 25.7547 6.00781C22.5281 1.82187 15.6469 1.25312 15.5781 1.24844H15.15C14.4797 1.60312 11.2516 3.50781 11.2516 7.5C11.2516 10.0672 13.3156 10.8281 16.6844 11.8578C18.3641 12.3719 20.1016 12.9031 21.5875 13.8484C25.7719 16.5109 27.9688 20.7875 28.0594 20.9688C28.1031 21.0562 28.1266 21.1531 28.1266 21.2516C28.1266 21.6703 28.0891 31.5484 24.8187 34.8187L24.2234 35.4141C20.8938 38.7516 19.6469 40.0016 16.8766 40.0016L16.875 40ZM6.87656 21.3641C6.89062 22.4656 7.08281 31.1984 9.81719 33.9328L10.4141 34.5297C13.6484 37.7703 14.6234 38.75 16.8766 38.75C19.1297 38.75 20.1047 37.7719 23.3391 34.5297L23.9359 33.9328C26.6422 31.2266 26.8594 22.6594 26.8766 21.4031C26.4828 20.6844 24.4156 17.1281 20.9172 14.9016C19.6109 14.0703 18.0094 13.5688 16.45 13.0922C16.4453 13.0922 16.4406 13.0953 16.4359 13.0969C14.8328 13.5875 13.5016 14.0813 12.2141 14.9016C8.68594 17.1469 7.13437 20.7281 6.87969 21.3625L6.87656 21.3641Z" fill="#29223E"/>
<path d="M6.25 25.625C6.075 25.625 5.9 25.5516 5.77656 25.4078C5.61719 25.2235 5.44844 25.0359 5.27656 24.8453C3.76094 23.1641 1.875 21.0719 1.875 16.25C1.875 6.79689 10.9703 3.80783 11.0609 3.7797C11.3906 3.67345 11.7406 3.85783 11.8453 4.18595C11.95 4.51408 11.7688 4.86564 11.4391 4.97033C11.1 5.07814 3.125 7.72501 3.125 16.25C3.125 20.5906 4.76094 22.4063 6.20469 24.0078C6.38437 24.2063 6.55781 24.4 6.72344 24.5922C6.94844 24.8531 6.92031 25.2485 6.65781 25.4734C6.54063 25.575 6.39531 25.625 6.25 25.625Z" fill="black" fill-opacity="0.1"/>
<path d="M27.4999 26.25C27.2484 26.25 27.0124 26.0969 26.9156 25.8484C26.7921 25.5266 26.9531 25.1641 27.2765 25.0406C27.3812 24.9984 29.9656 23.9094 30.5218 19.3C30.5624 18.9563 30.8765 18.7094 31.2171 18.7547C31.5593 18.7953 31.8046 19.1078 31.7624 19.45C31.1109 24.8531 27.8609 26.1563 27.7234 26.2094C27.6499 26.2375 27.5749 26.2516 27.4999 26.2516V26.25Z" fill="black" fill-opacity="0.1"/>
<path d="M31.25 18.125C30.9047 18.125 30.625 17.8453 30.625 17.5C30.625 11.2891 19.8469 6.2422 19.7375 6.1922C19.4235 6.04689 19.2875 5.67657 19.4313 5.36251C19.575 5.04845 19.9469 4.91251 20.2594 5.05626C20.7344 5.27501 31.8735 10.4906 31.8735 17.4984C31.8735 17.8438 31.5938 18.1234 31.2485 18.1234L31.25 18.125Z" fill="black" fill-opacity="0.1"/>
<path d="M28.125 35C27.7797 35 27.5 34.7203 27.5 34.375V33.125C27.5 32.7797 27.7797 32.5 28.125 32.5C28.4703 32.5 28.75 32.7797 28.75 33.125V34.375C28.75 34.7203 28.4703 35 28.125 35Z" fill="#07D767"/>
<path d="M2.5 26.25C2.15469 26.25 1.875 25.9703 1.875 25.625V25C1.875 24.6547 2.15469 24.375 2.5 24.375C2.84531 24.375 3.125 24.6547 3.125 25V25.625C3.125 25.9703 2.84531 26.25 2.5 26.25Z" fill="#07D767"/>
<path d="M1.25 27.5H0.625C0.279687 27.5 0 27.2203 0 26.875C0 26.5297 0.279687 26.25 0.625 26.25H1.25C1.59531 26.25 1.875 26.5297 1.875 26.875C1.875 27.2203 1.59531 27.5 1.25 27.5Z" fill="#07D767"/>
<path d="M2.5 29.375C2.15469 29.375 1.875 29.0953 1.875 28.75V28.125C1.875 27.7797 2.15469 27.5 2.5 27.5C2.84531 27.5 3.125 27.7797 3.125 28.125V28.75C3.125 29.0953 2.84531 29.375 2.5 29.375Z" fill="#07D767"/>
<path d="M4.375 27.5H3.75C3.40469 27.5 3.125 27.2203 3.125 26.875C3.125 26.5297 3.40469 26.25 3.75 26.25H4.375C4.72031 26.25 5 26.5297 5 26.875C5 27.2203 4.72031 27.5 4.375 27.5Z" fill="#07D767"/>
<path d="M31.25 28.75C30.9047 28.75 30.625 28.4703 30.625 28.125V27.5C30.625 27.1547 30.9047 26.875 31.25 26.875C31.5953 26.875 31.875 27.1547 31.875 27.5V28.125C31.875 28.4703 31.5953 28.75 31.25 28.75Z" fill="#07D767"/>
<path d="M30 30H29.375C29.0297 30 28.75 29.7203 28.75 29.375C28.75 29.0297 29.0297 28.75 29.375 28.75H30C30.3453 28.75 30.625 29.0297 30.625 29.375C30.625 29.7203 30.3453 30 30 30Z" fill="#07D767"/>
<path d="M31.25 31.875C30.9047 31.875 30.625 31.5953 30.625 31.25V30.625C30.625 30.2797 30.9047 30 31.25 30C31.5953 30 31.875 30.2797 31.875 30.625V31.25C31.875 31.5953 31.5953 31.875 31.25 31.875Z" fill="#07D767"/>
<path d="M33.125 30H32.5C32.1547 30 31.875 29.7203 31.875 29.375C31.875 29.0297 32.1547 28.75 32.5 28.75H33.125C33.4703 28.75 33.75 29.0297 33.75 29.375C33.75 29.7203 33.4703 30 33.125 30Z" fill="#07D767"/>
<path d="M26.875 36.25H25.625C25.2797 36.25 25 35.9703 25 35.625C25 35.2797 25.2797 35 25.625 35H26.875C27.2203 35 27.5 35.2797 27.5 35.625C27.5 35.9703 27.2203 36.25 26.875 36.25Z" fill="#07D767"/>
<path d="M28.125 38.75C27.7797 38.75 27.5 38.4703 27.5 38.125V36.875C27.5 36.5297 27.7797 36.25 28.125 36.25C28.4703 36.25 28.75 36.5297 28.75 36.875V38.125C28.75 38.4703 28.4703 38.75 28.125 38.75Z" fill="#07D767"/>
<path d="M30.625 36.25H29.375C29.0297 36.25 28.75 35.9703 28.75 35.625C28.75 35.2797 29.0297 35 29.375 35H30.625C30.9703 35 31.25 35.2797 31.25 35.625C31.25 35.9703 30.9703 36.25 30.625 36.25Z" fill="#07D767"/>
<path d="M12.5002 26.25C10.2643 26.25 9.47366 24.7203 9.44085 24.6547C9.28616 24.3453 9.41116 23.9703 9.72054 23.8156C10.0284 23.6625 10.3987 23.7844 10.5549 24.0875C10.583 24.1391 11.0752 24.9985 12.5002 24.9985C14.0284 24.9985 14.569 24.5453 14.5737 24.5406C14.8268 24.3203 15.219 24.3328 15.4487 24.5797C15.6784 24.8266 15.6799 25.2016 15.4424 25.4391C15.308 25.5735 14.5315 26.2469 12.5002 26.2469V26.25Z" fill="#29223E"/>
<path d="M21.25 26.25C19.2188 26.25 18.4437 25.5766 18.3078 25.4422C18.0641 25.1984 18.0641 24.8031 18.3078 24.5578C18.5516 24.3125 18.9469 24.3141 19.1922 24.5578C19.1922 24.5578 19.7406 25 21.25 25C22.7594 25 23.175 24.125 23.1953 24.0875C23.3578 23.7875 23.7344 23.6688 24.0359 23.825C24.3391 23.9828 24.4625 24.35 24.3094 24.6547C24.2766 24.7203 23.4859 26.25 21.25 26.25Z" fill="#29223E"/>
<path d="M15 22.5C14.7734 22.5 14.5547 22.3766 14.4438 22.161C14.4156 22.1094 13.9234 21.25 12.4984 21.25C10.9703 21.25 10.4297 21.7031 10.425 21.7078C10.1719 21.9281 9.77969 21.9156 9.55 21.6688C9.32032 21.4219 9.31875 21.0469 9.55625 20.8094C9.69063 20.675 10.4672 20.0016 12.4984 20.0016C14.7344 20.0016 15.525 21.5313 15.5578 21.5969C15.7125 21.9063 15.5875 22.2813 15.2781 22.436C15.1891 22.4813 15.0922 22.5016 14.9984 22.5016L15 22.5Z" fill="#29223E"/>
<path d="M18.7486 22.4953C18.6517 22.4953 18.5549 22.4734 18.4642 22.425C18.1611 22.2672 18.0377 21.9 18.1908 21.5953C18.2236 21.5297 19.0142 20 21.2502 20C23.2814 20 24.0564 20.6734 24.1924 20.8078C24.4361 21.0516 24.4361 21.4469 24.1924 21.6922C23.9486 21.9375 23.5533 21.9359 23.308 21.6922C23.308 21.6922 22.7596 21.25 21.2502 21.25C19.7408 21.25 19.3252 22.125 19.3049 22.1625C19.1908 22.3734 18.9736 22.4938 18.7486 22.4938V22.4953Z" fill="#29223E"/>
<path d="M16.8752 33.125C14.0705 33.125 13.2737 31.6922 13.1908 31.5297C13.0362 31.2203 13.1612 30.8453 13.4705 30.6906C13.7799 30.5359 14.1549 30.6609 14.3096 30.9703C14.3237 30.9937 14.8502 31.875 16.8752 31.875C18.9002 31.875 19.4268 30.9937 19.4487 30.9562C19.6174 30.6625 19.9924 30.5484 20.2909 30.7078C20.5893 30.8672 20.7112 31.2281 20.5596 31.5297C20.4784 31.6922 19.6815 33.125 16.8752 33.125Z" fill="#29223E"/>
</g>
<defs>
<clipPath id="clip0_533_5076">
<rect width="33.75" height="40" fill="white"/>
</clipPath>
</defs>
</svg>
